{
  "accessors": [
    {
      "name": "group_0_40919_0_positions",
      "componentType": 5126,
      "count": 2106,
      "min": [
        24,
        -37,
        5.136099815368652
      ],
      "max": [
        70,
        1,
        31
      ],
      "type": "VEC3",
      "bufferView": 0,
      "byteOffset": 0
    },
    {
      "name": "group_0_40919_0_indices",
      "componentType": 5123,
      "count": 11988,
      "min": [
        0
      ],
      "max": [
        2105
      ],
      "type": "SCALAR",
      "bufferView": 1,
      "byteOffset": 0
    },
    {
      "name": "group_0_15277357_0_positions",
      "componentType": 5126,
      "count": 4433,
      "min": [
        -52.858001708984375,
        -55,
        0
      ],
      "max": [
        50,
        24,
        35
      ],
      "type": "VEC3",
      "bufferView": 0,
      "byteOffset": 25272
    },
    {
      "name": "group_0_15277357_0_indices",
      "componentType": 5123,
      "count": 23796,
      "min": [
        0
      ],
      "max": [
        4432
      ],
      "type": "SCALAR",
      "bufferView": 1,
      "byteOffset": 23976
    },
    {
      "name": "group_0_16448250_0_positions",
      "componentType": 5126,
      "count": 2029,
      "min": [
        -35.779998779296875,
        -15,
        28
      ],
      "max": [
        41,
        6,
        34
      ],
      "type": "VEC3",
      "bufferView": 0,
      "byteOffset": 78468
    },
    {
      "name": "group_0_16448250_0_indices",
      "componentType": 5123,
      "count": 9972,
      "min": [
        0
      ],
      "max": [
        2028
      ],
      "type": "SCALAR",
      "bufferView": 1,
      "byteOffset": 71568
    }
  ],
  "asset": {
    "generator": "obj2gltf",
    "version": "2.0"
  },
  "buffers": [
    {
      "name": "tinker",
      "byteLength": 194328,
      "uri": "data:application/octet-stream;base64,"
    }
  ],
  "bufferViews": [
    {
      "name": "bufferView_0",
      "buffer": 0,
      "byteLength": 102816,
      "byteOffset": 0,
      "byteStride": 12,
      "target": 34962
    },
    {
      "name": "bufferView_1",
      "buffer": 0,
      "byteLength": 91512,
      "byteOffset": 102816,
      "target": 34963
    }
  ],
  "materials": [
    {
      "name": "color_40919",
      "pbrMetallicRoughness": {
        "baseColorFactor": [
          0,
          0.6235294117647059,
          0.8431372549019608,
          1
        ],
        "metallicFactor": 0,
        "roughnessFactor": 1
      },
      "emissiveFactor": [
        0,
        0,
        0
      ],
      "alphaMode": "OPAQUE",
      "doubleSided": false
    },
    {
      "name": "color_15277357",
      "pbrMetallicRoughness": {
        "baseColorFactor": [
          0.9137254901960784,
          0.11372549019607843,
          0.17647058823529413,
          1
        ],
        "metallicFactor": 0,
        "roughnessFactor": 1
      },
      "emissiveFactor": [
        0,
        0,
        0
      ],
      "alphaMode": "OPAQUE",
      "doubleSided": false
    },
    {
      "name": "color_16448250",
      "pbrMetallicRoughness": {
        "baseColorFactor": [
          0.9803921568627451,
          0.9803921568627451,
          0.9803921568627451,
          1
        ],
        "metallicFactor": 0,
        "roughnessFactor": 1
      },
      "emissiveFactor": [
        0,
        0,
        0
      ],
      "alphaMode": "OPAQUE",
      "doubleSided": false
    }
  ],
  "meshes": [
    {
      "name": "group_0_40919",
      "primitives": [
        {
          "attributes": {
            "POSITION": 0
          },
          "indices": 1,
          "material": 0,
          "mode": 4
        }
      ]
    },
    {
      "name": "group_0_15277357",
      "primitives": [
        {
          "attributes": {
            "POSITION": 2
          },
          "indices": 3,
          "material": 1,
          "mode": 4
        }
      ]
    },
    {
      "name": "group_0_16448250",
      "primitives": [
        {
          "attributes": {
            "POSITION": 4
          },
          "indices": 5,
          "material": 2,
          "mode": 4
        }
      ]
    }
  ],
  "nodes": [
    {
      "name": "obj_0",
      "children": [
        1,
        2,
        3
      ]
    },
    {
      "name": "group_0_40919",
      "mesh": 0
    },
    {
      "name": "group_0_15277357",
      "mesh": 1
    },
    {
      "name": "group_0_16448250",
      "mesh": 2
    }
  ],
  "scene": 0,
  "scenes": [
    {
      "nodes": [
        0
      ]
    }
  ]
}
