{
  "accessors": [
    {
      "name": "group_0_40919_0_positions",
      "componentType": 5126,
      "count": 1295,
      "min": [
        -71.2040023803711,
        -19.736000061035156,
        27.961999893188477
      ],
      "max": [
        -62.44200134277344,
        -19.082000732421875,
        28.07200050354004
      ],
      "type": "VEC3",
      "bufferView": 0,
      "byteOffset": 0
    },
    {
      "name": "group_0_40919_0_indices",
      "componentType": 5123,
      "count": 7746,
      "min": [
        0
      ],
      "max": [
        1294
      ],
      "type": "SCALAR",
      "bufferView": 1,
      "byteOffset": 0
    },
    {
      "name": "group_0_2829873_0_positions",
      "componentType": 5126,
      "count": 3530,
      "min": [
        -74.2490005493164,
        -36.41899871826172,
        8.890999794006348
      ],
      "max": [
        73,
        21.515499114990234,
        50.24399948120117
      ],
      "type": "VEC3",
      "bufferView": 0,
      "byteOffset": 15540
    },
    {
      "name": "group_0_2829873_0_indices",
      "componentType": 5123,
      "count": 16842,
      "min": [
        0
      ],
      "max": [
        3529
      ],
      "type": "SCALAR",
      "bufferView": 1,
      "byteOffset": 15492
    },
    {
      "name": "group_0_4634441_0_positions",
      "componentType": 5126,
      "count": 2076,
      "min": [
        -70.71199798583984,
        -30.6299991607666,
        9.890999794006348
      ],
      "max": [
        56.10499954223633,
        10.098999977111816,
        34.42850112915039
      ],
      "type": "VEC3",
      "bufferView": 0,
      "byteOffset": 57900
    },
    {
      "name": "group_0_4634441_0_indices",
      "componentType": 5123,
      "count": 11043,
      "min": [
        0
      ],
      "max": [
        2075
      ],
      "type": "SCALAR",
      "bufferView": 1,
      "byteOffset": 49176
    },
    {
      "name": "group_0_6383466_0_positions",
      "componentType": 5126,
      "count": 330,
      "min": [
        -78.31099700927734,
        -20.051000595092773,
        9.890999794006348
      ],
      "max": [
        63.46500015258789,
        7.798999786376953,
        48.89099884033203
      ],
      "type": "VEC3",
      "bufferView": 0,
      "byteOffset": 82812
    },
    {
      "name": "group_0_6383466_0_indices",
      "componentType": 5123,
      "count": 1464,
      "min": [
        0
      ],
      "max": [
        329
      ],
      "type": "SCALAR",
      "bufferView": 1,
      "byteOffset": 71264
    },
    {
      "name": "group_0_7720667_0_positions",
      "componentType": 5126,
      "count": 2862,
      "min": [
        -81,
        -75.40499877929688,
        0
      ],
      "max": [
        66.9489974975586,
        75,
        9.890999794006348
      ],
      "type": "VEC3",
      "bufferView": 0,
      "byteOffset": 86772
    },
    {
      "name": "group_0_7720667_0_indices",
      "componentType": 5123,
      "count": 9045,
      "min": [
        0
      ],
      "max": [
        2861
      ],
      "type": "SCALAR",
      "bufferView": 1,
      "byteOffset": 74192
    },
    {
      "name": "group_0_12568524_0_positions",
      "componentType": 5126,
      "count": 1983,
      "min": [
        -20.771799087524414,
        17.19499969482422,
        9.890999794006348
      ],
      "max": [
        -0.30379998683929443,
        55.097599029541016,
        24.291000366210938
      ],
      "type": "VEC3",
      "bufferView": 0,
      "byteOffset": 121116
    },
    {
      "name": "group_0_12568524_0_indices",
      "componentType": 5123,
      "count": 9939,
      "min": [
        0
      ],
      "max": [
        1982
      ],
      "type": "SCALAR",
      "bufferView": 1,
      "byteOffset": 92284
    },
    {
      "name": "group_0_13877221_0_positions",
      "componentType": 5126,
      "count": 964,
      "min": [
        -37.04199981689453,
        -56.10300064086914,
        9.890999794006348
      ],
      "max": [
        42.88100051879883,
        -35.805999755859375,
        26.1299991607666
      ],
      "type": "VEC3",
      "bufferView": 0,
      "byteOffset": 144912
    },
    {
      "name": "group_0_13877221_0_indices",
      "componentType": 5123,
      "count": 4977,
      "min": [
        0
      ],
      "max": [
        963
      ],
      "type": "SCALAR",
      "bufferView": 1,
      "byteOffset": 112164
    },
    {
      "name": "group_0_14093196_0_positions",
      "componentType": 5126,
      "count": 1392,
      "min": [
        -71.1969985961914,
        -81.9000015258789,
        8.890999794006348
      ],
      "max": [
        11.470000267028809,
        -18.2189998626709,
        28.07200050354004
      ],
      "type": "VEC3",
      "bufferView": 0,
      "byteOffset": 156480
    },
    {
      "name": "group_0_14093196_0_indices",
      "componentType": 5123,
      "count": 8190,
      "min": [
        0
      ],
      "max": [
        1391
      ],
      "type": "SCALAR",
      "bufferView": 1,
      "byteOffset": 122120
    },
    {
      "name": "group_0_14541540_0_positions",
      "componentType": 5126,
      "count": 3394,
      "min": [
        37.683998107910156,
        3.7820000648498535,
        35.7598991394043
      ],
      "max": [
        60.858001708984375,
        21.381999969482422,
        64.19100189208984
      ],
      "type": "VEC3",
      "bufferView": 0,
      "byteOffset": 173184
    },
    {
      "name": "group_0_14541540_0_indices",
      "componentType": 5123,
      "count": 18147,
      "min": [
        0
      ],
      "max": [
        3393
      ],
      "type": "SCALAR",
      "bufferView": 1,
      "byteOffset": 138500
    },
    {
      "name": "group_0_14900002_0_positions",
      "componentType": 5126,
      "count": 1565,
      "min": [
        -68.35099792480469,
        3.3949999809265137,
        9.890999794006348
      ],
      "max": [
        -34.05099868774414,
        40.595001220703125,
        21.781999588012695
      ],
      "type": "VEC3",
      "bufferView": 0,
      "byteOffset": 213912
    },
    {
      "name": "group_0_14900002_0_indices",
      "componentType": 5123,
      "count": 7629,
      "min": [
        0
      ],
      "max": [
        1564
      ],
      "type": "SCALAR",
      "bufferView": 1,
      "byteOffset": 174796
    },
    {
      "name": "group_0_15277357_0_positions",
      "componentType": 5126,
      "count": 2867,
      "min": [
        -74.10900115966797,
        -19.80500030517578,
        9.890999794006348
      ],
      "max": [
        56.70100021362305,
        18.020999908447266,
        35.9109001159668
      ],
      "type": "VEC3",
      "bufferView": 0,
      "byteOffset": 232692
    },
    {
      "name": "group_0_15277357_0_indices",
      "componentType": 5123,
      "count": 14037,
      "min": [
        0
      ],
      "max": [
        2866
      ],
      "type": "SCALAR",
      "bufferView": 1,
      "byteOffset": 190056
    },
    {
      "name": "group_0_16448250_0_positions",
      "componentType": 5126,
      "count": 10966,
      "min": [
        17.674999237060547,
        -38.5,
        9.890999794006348
      ],
      "max": [
        64.4000015258789,
        21.799999237060547,
        40.01499938964844
      ],
      "type": "VEC3",
      "bufferView": 0,
      "byteOffset": 267096
    },
    {
      "name": "group_0_16448250_0_indices",
      "componentType": 5123,
      "count": 58707,
      "min": [
        0
      ],
      "max": [
        10965
      ],
      "type": "SCALAR",
      "bufferView": 1,
      "byteOffset": 218132
    },
    {
      "name": "group_0_16768282_0_positions",
      "componentType": 5126,
      "count": 1172,
      "min": [
        4.247099876403809,
        3.183000087738037,
        9.890999794006348
      ],
      "max": [
        55.57899856567383,
        51.43579864501953,
        46.09400177001953
      ],
      "type": "VEC3",
      "bufferView": 0,
      "byteOffset": 398688
    },
    {
      "name": "group_0_16768282_0_indices",
      "componentType": 5123,
      "count": 4770,
      "min": [
        0
      ],
      "max": [
        1171
      ],
      "type": "SCALAR",
      "bufferView": 1,
      "byteOffset": 335548
    }
  ],
  "asset": {
    "generator": "obj2gltf",
    "version": "2.0"
  },
  "buffers": [
    {
      "name": "tinker",
      "byteLength": 757840,
      "uri": "data:application/octet-stream;base64,"
    }
  ],
  "bufferViews": [
    {
      "name": "bufferView_0",
      "buffer": 0,
      "byteLength": 412752,
      "byteOffset": 0,
      "byteStride": 12,
      "target": 34962
    },
    {
      "name": "bufferView_1",
      "buffer": 0,
      "byteLength": 345088,
      "byteOffset": 412752,
      "target": 34963
    }
  ],
  "materials": [
    {
      "name": "color_40919",
      "pbrMetallicRoughness": {
        "baseColorFactor": [
          0,
          0.6235294117647059,
          0.8431372549019608,
          1
        ],
        "metallicFactor": 0,
        "roughnessFactor": 1
      },
      "emissiveFactor": [
        0,
        0,
        0
      ],
      "alphaMode": "OPAQUE",
      "doubleSided": false
    },
    {
      "name": "color_2829873",
      "pbrMetallicRoughness": {
        "baseColorFactor": [
          0.16862745098039217,
          0.1803921568627451,
          0.19215686274509805,
          1
        ],
        "metallicFactor": 0,
        "roughnessFactor": 1
      },
      "emissiveFactor": [
        0,
        0,
        0
      ],
      "alphaMode": "OPAQUE",
      "doubleSided": false
    },
    {
      "name": "color_4634441",
      "pbrMetallicRoughness": {
        "baseColorFactor": [
          0.27450980392156865,
          0.7176470588235294,
          0.28627450980392155,
          1
        ],
        "metallicFactor": 0,
        "roughnessFactor": 1
      },
      "emissiveFactor": [
        0,
        0,
        0
      ],
      "alphaMode": "OPAQUE",
      "doubleSided": false
    },
    {
      "name": "color_6383466",
      "pbrMetallicRoughness": {
        "baseColorFactor": [
          0.3803921568627451,
          0.403921568627451,
          0.41568627450980394,
          1
        ],
        "metallicFactor": 0,
        "roughnessFactor": 1
      },
      "emissiveFactor": [
        0,
        0,
        0
      ],
      "alphaMode": "OPAQUE",
      "doubleSided": false
    },
    {
      "name": "color_7720667",
      "pbrMetallicRoughness": {
        "baseColorFactor": [
          0.4588235294117647,
          0.807843137254902,
          0.8588235294117647,
          1
        ],
        "metallicFactor": 0,
        "roughnessFactor": 1
      },
      "emissiveFactor": [
        0,
        0,
        0
      ],
      "alphaMode": "OPAQUE",
      "doubleSided": false
    },
    {
      "name": "color_12568524",
      "pbrMetallicRoughness": {
        "baseColorFactor": [
          0.7490196078431373,
          0.7803921568627451,
          0.8,
          1
        ],
        "metallicFactor": 0,
        "roughnessFactor": 1
      },
      "emissiveFactor": [
        0,
        0,
        0
      ],
      "alphaMode": "OPAQUE",
      "doubleSided": false
    },
    {
      "name": "color_13877221",
      "pbrMetallicRoughness": {
        "baseColorFactor": [
          0.8274509803921568,
          0.7490196078431373,
          0.8980392156862745,
          1
        ],
        "metallicFactor": 0,
        "roughnessFactor": 1
      },
      "emissiveFactor": [
        0,
        0,
        0
      ],
      "alphaMode": "OPAQUE",
      "doubleSided": false
    },
    {
      "name": "color_14093196",
      "pbrMetallicRoughness": {
        "baseColorFactor": [
          0.8431372549019608,
          0.043137254901960784,
          0.5490196078431373,
          1
        ],
        "metallicFactor": 0,
        "roughnessFactor": 1
      },
      "emissiveFactor": [
        0,
        0,
        0
      ],
      "alphaMode": "OPAQUE",
      "doubleSided": false
    },
    {
      "name": "color_14541540",
      "pbrMetallicRoughness": {
        "baseColorFactor": [
          0.8666666666666667,
          0.8862745098039215,
          0.8941176470588236,
          1
        ],
        "metallicFactor": 0,
        "roughnessFactor": 1
      },
      "emissiveFactor": [
        0,
        0,
        0
      ],
      "alphaMode": "OPAQUE",
      "doubleSided": false
    },
    {
      "name": "color_14900002",
      "pbrMetallicRoughness": {
        "baseColorFactor": [
          0.8901960784313725,
          0.3568627450980392,
          0.13333333333333333,
          1
        ],
        "metallicFactor": 0,
        "roughnessFactor": 1
      },
      "emissiveFactor": [
        0,
        0,
        0
      ],
      "alphaMode": "OPAQUE",
      "doubleSided": false
    },
    {
      "name": "color_15277357",
      "pbrMetallicRoughness": {
        "baseColorFactor": [
          0.9137254901960784,
          0.11372549019607843,
          0.17647058823529413,
          1
        ],
        "metallicFactor": 0,
        "roughnessFactor": 1
      },
      "emissiveFactor": [
        0,
        0,
        0
      ],
      "alphaMode": "OPAQUE",
      "doubleSided": false
    },
    {
      "name": "color_16448250",
      "pbrMetallicRoughness": {
        "baseColorFactor": [
          0.9803921568627451,
          0.9803921568627451,
          0.9803921568627451,
          1
        ],
        "metallicFactor": 0,
        "roughnessFactor": 1
      },
      "emissiveFactor": [
        0,
        0,
        0
      ],
      "alphaMode": "OPAQUE",
      "doubleSided": false
    },
    {
      "name": "color_16768282",
      "pbrMetallicRoughness": {
        "baseColorFactor": [
          1,
          0.8666666666666667,
          0.10196078431372549,
          1
        ],
        "metallicFactor": 0,
        "roughnessFactor": 1
      },
      "emissiveFactor": [
        0,
        0,
        0
      ],
      "alphaMode": "OPAQUE",
      "doubleSided": false
    }
  ],
  "meshes": [
    {
      "name": "group_0_40919",
      "primitives": [
        {
          "attributes": {
            "POSITION": 0
          },
          "indices": 1,
          "material": 0,
          "mode": 4
        }
      ]
    },
    {
      "name": "group_0_2829873",
      "primitives": [
        {
          "attributes": {
            "POSITION": 2
          },
          "indices": 3,
          "material": 1,
          "mode": 4
        }
      ]
    },
    {
      "name": "group_0_4634441",
      "primitives": [
        {
          "attributes": {
            "POSITION": 4
          },
          "indices": 5,
          "material": 2,
          "mode": 4
        }
      ]
    },
    {
      "name": "group_0_6383466",
      "primitives": [
        {
          "attributes": {
            "POSITION": 6
          },
          "indices": 7,
          "material": 3,
          "mode": 4
        }
      ]
    },
    {
      "name": "group_0_7720667",
      "primitives": [
        {
          "attributes": {
            "POSITION": 8
          },
          "indices": 9,
          "material": 4,
          "mode": 4
        }
      ]
    },
    {
      "name": "group_0_12568524",
      "primitives": [
        {
          "attributes": {
            "POSITION": 10
          },
          "indices": 11,
          "material": 5,
          "mode": 4
        }
      ]
    },
    {
      "name": "group_0_13877221",
      "primitives": [
        {
          "attributes": {
            "POSITION": 12
          },
          "indices": 13,
          "material": 6,
          "mode": 4
        }
      ]
    },
    {
      "name": "group_0_14093196",
      "primitives": [
        {
          "attributes": {
            "POSITION": 14
          },
          "indices": 15,
          "material": 7,
          "mode": 4
        }
      ]
    },
    {
      "name": "group_0_14541540",
      "primitives": [
        {
          "attributes": {
            "POSITION": 16
          },
          "indices": 17,
          "material": 8,
          "mode": 4
        }
      ]
    },
    {
      "name": "group_0_14900002",
      "primitives": [
        {
          "attributes": {
            "POSITION": 18
          },
          "indices": 19,
          "material": 9,
          "mode": 4
        }
      ]
    },
    {
      "name": "group_0_15277357",
      "primitives": [
        {
          "attributes": {
            "POSITION": 20
          },
          "indices": 21,
          "material": 10,
          "mode": 4
        }
      ]
    },
    {
      "name": "group_0_16448250",
      "primitives": [
        {
          "attributes": {
            "POSITION": 22
          },
          "indices": 23,
          "material": 11,
          "mode": 4
        }
      ]
    },
    {
      "name": "group_0_16768282",
      "primitives": [
        {
          "attributes": {
            "POSITION": 24
          },
          "indices": 25,
          "material": 12,
          "mode": 4
        }
      ]
    }
  ],
  "nodes": [
    {
      "name": "obj_0",
      "children": [
        1,
        2,
        3,
        4,
        5,
        6,
        7,
        8,
        9,
        10,
        11,
        12,
        13
      ]
    },
    {
      "name": "group_0_40919",
      "mesh": 0
    },
    {
      "name": "group_0_2829873",
      "mesh": 1
    },
    {
      "name": "group_0_4634441",
      "mesh": 2
    },
    {
      "name": "group_0_6383466",
      "mesh": 3
    },
    {
      "name": "group_0_7720667",
      "mesh": 4
    },
    {
      "name": "group_0_12568524",
      "mesh": 5
    },
    {
      "name": "group_0_13877221",
      "mesh": 6
    },
    {
      "name": "group_0_14093196",
      "mesh": 7
    },
    {
      "name": "group_0_14541540",
      "mesh": 8
    },
    {
      "name": "group_0_14900002",
      "mesh": 9
    },
    {
      "name": "group_0_15277357",
      "mesh": 10
    },
    {
      "name": "group_0_16448250",
      "mesh": 11
    },
    {
      "name": "group_0_16768282",
      "mesh": 12
    }
  ],
  "scene": 0,
  "scenes": [
    {
      "nodes": [
        0
      ]
    }
  ]
}
