{
  "accessors": [
    {
      "name": "group_0_40919_0_positions",
      "componentType": 5126,
      "count": 1221,
      "min": [
        -19.57200050354004,
        57.24300003051758,
        4.599999904632568
      ],
      "max": [
        1.600000023841858,
        58.70000076293945,
        5.400000095367432
      ],
      "type": "VEC3",
      "bufferView": 0,
      "byteOffset": 0
    },
    {
      "name": "group_0_40919_0_indices",
      "componentType": 5123,
      "count": 6681,
      "min": [
        0
      ],
      "max": [
        1220
      ],
      "type": "SCALAR",
      "bufferView": 1,
      "byteOffset": 0
    },
    {
      "name": "group_0_1206582_0_positions",
      "componentType": 5126,
      "count": 9543,
      "min": [
        -39.599998474121094,
        -65.04399871826172,
        3.200000047683716
      ],
      "max": [
        58.20000076293945,
        37.20000076293945,
        35.599998474121094
      ],
      "type": "VEC3",
      "bufferView": 0,
      "byteOffset": 14652
    },
    {
      "name": "group_0_1206582_0_indices",
      "componentType": 5123,
      "count": 53928,
      "min": [
        0
      ],
      "max": [
        9542
      ],
      "type": "SCALAR",
      "bufferView": 1,
      "byteOffset": 13364
    },
    {
      "name": "group_0_4634441_0_positions",
      "componentType": 5126,
      "count": 201,
      "min": [
        -40.400001525878906,
        -66,
        23.700000762939453
      ],
      "max": [
        15.282999992370605,
        37.099998474121094,
        30.600000381469727
      ],
      "type": "VEC3",
      "bufferView": 0,
      "byteOffset": 129168
    },
    {
      "name": "group_0_4634441_0_indices",
      "componentType": 5123,
      "count": 741,
      "min": [
        0
      ],
      "max": [
        200
      ],
      "type": "SCALAR",
      "bufferView": 1,
      "byteOffset": 121220
    },
    {
      "name": "group_0_6383466_0_positions",
      "componentType": 5126,
      "count": 4195,
      "min": [
        -71,
        -69.30000305175781,
        0
      ],
      "max": [
        69,
        67.69999694824219,
        44.400001525878906
      ],
      "type": "VEC3",
      "bufferView": 0,
      "byteOffset": 131580
    },
    {
      "name": "group_0_6383466_0_indices",
      "componentType": 5123,
      "count": 16443,
      "min": [
        0
      ],
      "max": [
        4194
      ],
      "type": "SCALAR",
      "bufferView": 1,
      "byteOffset": 122704
    },
    {
      "name": "group_0_8768998_0_positions",
      "componentType": 5126,
      "count": 12655,
      "min": [
        -66.5999984741211,
        -68.27100372314453,
        0
      ],
      "max": [
        66,
        66.4000015258789,
        34.132999420166016
      ],
      "type": "VEC3",
      "bufferView": 0,
      "byteOffset": 181920
    },
    {
      "name": "group_0_8768998_0_indices",
      "componentType": 5123,
      "count": 40488,
      "min": [
        0
      ],
      "max": [
        12654
      ],
      "type": "SCALAR",
      "bufferView": 1,
      "byteOffset": 155592
    },
    {
      "name": "group_0_11107152_0_positions",
      "componentType": 5126,
      "count": 1809,
      "min": [
        -40.79999923706055,
        -66.69999694824219,
        0
      ],
      "max": [
        56.231998443603516,
        37.79999923706055,
        30.1033992767334
      ],
      "type": "VEC3",
      "bufferView": 0,
      "byteOffset": 333780
    },
    {
      "name": "group_0_11107152_0_indices",
      "componentType": 5123,
      "count": 5808,
      "min": [
        0
      ],
      "max": [
        1808
      ],
      "type": "SCALAR",
      "bufferView": 1,
      "byteOffset": 236568
    },
    {
      "name": "group_0_15277357_0_positions",
      "componentType": 5126,
      "count": 32370,
      "min": [
        -64.4000015258789,
        -63.79999923706055,
        2.9000000953674316
      ],
      "max": [
        55.6879997253418,
        63.34199905395508,
        40.70000076293945
      ],
      "type": "VEC3",
      "bufferView": 0,
      "byteOffset": 355488
    },
    {
      "name": "group_0_15277357_0_indices",
      "componentType": 5123,
      "count": 155733,
      "min": [
        0
      ],
      "max": [
        32369
      ],
      "type": "SCALAR",
      "bufferView": 1,
      "byteOffset": 248184
    },
    {
      "name": "group_0_16089887_0_positions",
      "componentType": 5126,
      "count": 218,
      "min": [
        -57.5,
        -61.400001525878906,
        29
      ],
      "max": [
        52.900001525878906,
        63.900001525878906,
        36.70000076293945
      ],
      "type": "VEC3",
      "bufferView": 0,
      "byteOffset": 743928
    },
    {
      "name": "group_0_16089887_0_indices",
      "componentType": 5123,
      "count": 924,
      "min": [
        0
      ],
      "max": [
        217
      ],
      "type": "SCALAR",
      "bufferView": 1,
      "byteOffset": 559652
    }
  ],
  "asset": {
    "generator": "obj2gltf",
    "version": "2.0"
  },
  "buffers": [
    {
      "name": "tinker",
      "byteLength": 1308044,
      "uri": "data:application/octet-stream;base64,"
    }
  ],
  "bufferViews": [
    {
      "name": "bufferView_0",
      "buffer": 0,
      "byteLength": 746544,
      "byteOffset": 0,
      "byteStride": 12,
      "target": 34962
    },
    {
      "name": "bufferView_1",
      "buffer": 0,
      "byteLength": 561500,
      "byteOffset": 746544,
      "target": 34963
    }
  ],
  "materials": [
    {
      "name": "color_40919",
      "pbrMetallicRoughness": {
        "baseColorFactor": [
          0,
          0.6235294117647059,
          0.8431372549019608,
          1
        ],
        "metallicFactor": 0,
        "roughnessFactor": 1
      },
      "emissiveFactor": [
        0,
        0,
        0
      ],
      "alphaMode": "OPAQUE",
      "doubleSided": false
    },
    {
      "name": "color_1206582",
      "pbrMetallicRoughness": {
        "baseColorFactor": [
          0.07058823529411765,
          0.4117647058823529,
          0.21176470588235294,
          1
        ],
        "metallicFactor": 0,
        "roughnessFactor": 1
      },
      "emissiveFactor": [
        0,
        0,
        0
      ],
      "alphaMode": "OPAQUE",
      "doubleSided": false
    },
    {
      "name": "color_4634441",
      "pbrMetallicRoughness": {
        "baseColorFactor": [
          0.27450980392156865,
          0.7176470588235294,
          0.28627450980392155,
          1
        ],
        "metallicFactor": 0,
        "roughnessFactor": 1
      },
      "emissiveFactor": [
        0,
        0,
        0
      ],
      "alphaMode": "OPAQUE",
      "doubleSided": false
    },
    {
      "name": "color_6383466",
      "pbrMetallicRoughness": {
        "baseColorFactor": [
          0.3803921568627451,
          0.403921568627451,
          0.41568627450980394,
          1
        ],
        "metallicFactor": 0,
        "roughnessFactor": 1
      },
      "emissiveFactor": [
        0,
        0,
        0
      ],
      "alphaMode": "OPAQUE",
      "doubleSided": false
    },
    {
      "name": "color_8768998",
      "pbrMetallicRoughness": {
        "baseColorFactor": [
          0.5215686274509804,
          0.803921568627451,
          0.9019607843137255,
          1
        ],
        "metallicFactor": 0,
        "roughnessFactor": 1
      },
      "emissiveFactor": [
        0,
        0,
        0
      ],
      "alphaMode": "OPAQUE",
      "doubleSided": false
    },
    {
      "name": "color_11107152",
      "pbrMetallicRoughness": {
        "baseColorFactor": [
          0.6627450980392157,
          0.4823529411764706,
          0.3137254901960784,
          1
        ],
        "metallicFactor": 0,
        "roughnessFactor": 1
      },
      "emissiveFactor": [
        0,
        0,
        0
      ],
      "alphaMode": "OPAQUE",
      "doubleSided": false
    },
    {
      "name": "color_15277357",
      "pbrMetallicRoughness": {
        "baseColorFactor": [
          0.9137254901960784,
          0.11372549019607843,
          0.17647058823529413,
          1
        ],
        "metallicFactor": 0,
        "roughnessFactor": 1
      },
      "emissiveFactor": [
        0,
        0,
        0
      ],
      "alphaMode": "OPAQUE",
      "doubleSided": false
    },
    {
      "name": "color_16089887",
      "pbrMetallicRoughness": {
        "baseColorFactor": [
          0.9607843137254902,
          0.5137254901960784,
          0.12156862745098039,
          1
        ],
        "metallicFactor": 0,
        "roughnessFactor": 1
      },
      "emissiveFactor": [
        0,
        0,
        0
      ],
      "alphaMode": "OPAQUE",
      "doubleSided": false
    }
  ],
  "meshes": [
    {
      "name": "group_0_40919",
      "primitives": [
        {
          "attributes": {
            "POSITION": 0
          },
          "indices": 1,
          "material": 0,
          "mode": 4
        }
      ]
    },
    {
      "name": "group_0_1206582",
      "primitives": [
        {
          "attributes": {
            "POSITION": 2
          },
          "indices": 3,
          "material": 1,
          "mode": 4
        }
      ]
    },
    {
      "name": "group_0_4634441",
      "primitives": [
        {
          "attributes": {
            "POSITION": 4
          },
          "indices": 5,
          "material": 2,
          "mode": 4
        }
      ]
    },
    {
      "name": "group_0_6383466",
      "primitives": [
        {
          "attributes": {
            "POSITION": 6
          },
          "indices": 7,
          "material": 3,
          "mode": 4
        }
      ]
    },
    {
      "name": "group_0_8768998",
      "primitives": [
        {
          "attributes": {
            "POSITION": 8
          },
          "indices": 9,
          "material": 4,
          "mode": 4
        }
      ]
    },
    {
      "name": "group_0_11107152",
      "primitives": [
        {
          "attributes": {
            "POSITION": 10
          },
          "indices": 11,
          "material": 5,
          "mode": 4
        }
      ]
    },
    {
      "name": "group_0_15277357",
      "primitives": [
        {
          "attributes": {
            "POSITION": 12
          },
          "indices": 13,
          "material": 6,
          "mode": 4
        }
      ]
    },
    {
      "name": "group_0_16089887",
      "primitives": [
        {
          "attributes": {
            "POSITION": 14
          },
          "indices": 15,
          "material": 7,
          "mode": 4
        }
      ]
    }
  ],
  "nodes": [
    {
      "name": "obj_0",
      "children": [
        1,
        2,
        3,
        4,
        5,
        6,
        7,
        8
      ]
    },
    {
      "name": "group_0_40919",
      "mesh": 0
    },
    {
      "name": "group_0_1206582",
      "mesh": 1
    },
    {
      "name": "group_0_4634441",
      "mesh": 2
    },
    {
      "name": "group_0_6383466",
      "mesh": 3
    },
    {
      "name": "group_0_8768998",
      "mesh": 4
    },
    {
      "name": "group_0_11107152",
      "mesh": 5
    },
    {
      "name": "group_0_15277357",
      "mesh": 6
    },
    {
      "name": "group_0_16089887",
      "mesh": 7
    }
  ],
  "scene": 0,
  "scenes": [
    {
      "nodes": [
        0
      ]
    }
  ]
}
