{
  "accessors": [
    {
      "name": "group_0_7720667_0_positions",
      "componentType": 5126,
      "count": 343,
      "min": [
        -20.05900001525879,
        -58,
        2
      ],
      "max": [
        16,
        60.321998596191406,
        13.49899959564209
      ],
      "type": "VEC3",
      "bufferView": 0,
      "byteOffset": 0
    },
    {
      "name": "group_0_7720667_0_indices",
      "componentType": 5123,
      "count": 1161,
      "min": [
        0
      ],
      "max": [
        342
      ],
      "type": "SCALAR",
      "bufferView": 1,
      "byteOffset": 0
    },
    {
      "name": "group_0_8768998_0_positions",
      "componentType": 5126,
      "count": 885,
      "min": [
        -45,
        -61,
        -1
      ],
      "max": [
        21,
        66,
        4
      ],
      "type": "VEC3",
      "bufferView": 0,
      "byteOffset": 4116
    },
    {
      "name": "group_0_8768998_0_indices",
      "componentType": 5123,
      "count": 3660,
      "min": [
        0
      ],
      "max": [
        884
      ],
      "type": "SCALAR",
      "bufferView": 1,
      "byteOffset": 2324
    },
    {
      "name": "group_0_14541540_0_positions",
      "componentType": 5126,
      "count": 1348,
      "min": [
        -19.867000579833984,
        -47.03300094604492,
        3
      ],
      "max": [
        5,
        33.85200119018555,
        11
      ],
      "type": "VEC3",
      "bufferView": 0,
      "byteOffset": 14736
    },
    {
      "name": "group_0_14541540_0_indices",
      "componentType": 5123,
      "count": 7281,
      "min": [
        0
      ],
      "max": [
        1347
      ],
      "type": "SCALAR",
      "bufferView": 1,
      "byteOffset": 9644
    },
    {
      "name": "group_0_14789940_0_positions",
      "componentType": 5126,
      "count": 1877,
      "min": [
        -41,
        -63,
        -2
      ],
      "max": [
        20,
        63,
        2
      ],
      "type": "VEC3",
      "bufferView": 0,
      "byteOffset": 30912
    },
    {
      "name": "group_0_14789940_0_indices",
      "componentType": 5123,
      "count": 5700,
      "min": [
        0
      ],
      "max": [
        1876
      ],
      "type": "SCALAR",
      "bufferView": 1,
      "byteOffset": 24208
    },
    {
      "name": "group_0_15277357_0_positions",
      "componentType": 5126,
      "count": 7557,
      "min": [
        -39.94900131225586,
        -59.91699981689453,
        0
      ],
      "max": [
        22,
        52.599998474121094,
        10
      ],
      "type": "VEC3",
      "bufferView": 0,
      "byteOffset": 53436
    },
    {
      "name": "group_0_15277357_0_indices",
      "componentType": 5123,
      "count": 39246,
      "min": [
        0
      ],
      "max": [
        7556
      ],
      "type": "SCALAR",
      "bufferView": 1,
      "byteOffset": 35608
    },
    {
      "name": "group_0_16089887_0_positions",
      "componentType": 5126,
      "count": 119,
      "min": [
        -9,
        61,
        0
      ],
      "max": [
        11,
        81,
        5
      ],
      "type": "VEC3",
      "bufferView": 0,
      "byteOffset": 144120
    },
    {
      "name": "group_0_16089887_0_indices",
      "componentType": 5123,
      "count": 636,
      "min": [
        0
      ],
      "max": [
        118
      ],
      "type": "SCALAR",
      "bufferView": 1,
      "byteOffset": 114100
    }
  ],
  "asset": {
    "generator": "obj2gltf",
    "version": "2.0"
  },
  "buffers": [
    {
      "name": "tinker",
      "byteLength": 260920,
      "uri": "data:application/octet-stream;base64,"
    }
  ],
  "bufferViews": [
    {
      "name": "bufferView_0",
      "buffer": 0,
      "byteLength": 145548,
      "byteOffset": 0,
      "byteStride": 12,
      "target": 34962
    },
    {
      "name": "bufferView_1",
      "buffer": 0,
      "byteLength": 115372,
      "byteOffset": 145548,
      "target": 34963
    }
  ],
  "materials": [
    {
      "name": "color_7720667",
      "pbrMetallicRoughness": {
        "baseColorFactor": [
          0.4588235294117647,
          0.807843137254902,
          0.8588235294117647,
          1
        ],
        "metallicFactor": 0,
        "roughnessFactor": 1
      },
      "emissiveFactor": [
        0,
        0,
        0
      ],
      "alphaMode": "OPAQUE",
      "doubleSided": false
    },
    {
      "name": "color_8768998",
      "pbrMetallicRoughness": {
        "baseColorFactor": [
          0.5215686274509804,
          0.803921568627451,
          0.9019607843137255,
          1
        ],
        "metallicFactor": 0,
        "roughnessFactor": 1
      },
      "emissiveFactor": [
        0,
        0,
        0
      ],
      "alphaMode": "OPAQUE",
      "doubleSided": false
    },
    {
      "name": "color_14541540",
      "pbrMetallicRoughness": {
        "baseColorFactor": [
          0.8666666666666667,
          0.8862745098039215,
          0.8941176470588236,
          1
        ],
        "metallicFactor": 0,
        "roughnessFactor": 1
      },
      "emissiveFactor": [
        0,
        0,
        0
      ],
      "alphaMode": "OPAQUE",
      "doubleSided": false
    },
    {
      "name": "color_14789940",
      "pbrMetallicRoughness": {
        "baseColorFactor": [
          0.8823529411764706,
          0.6784313725490196,
          0.20392156862745098,
          1
        ],
        "metallicFactor": 0,
        "roughnessFactor": 1
      },
      "emissiveFactor": [
        0,
        0,
        0
      ],
      "alphaMode": "OPAQUE",
      "doubleSided": false
    },
    {
      "name": "color_15277357",
      "pbrMetallicRoughness": {
        "baseColorFactor": [
          0.9137254901960784,
          0.11372549019607843,
          0.17647058823529413,
          1
        ],
        "metallicFactor": 0,
        "roughnessFactor": 1
      },
      "emissiveFactor": [
        0,
        0,
        0
      ],
      "alphaMode": "OPAQUE",
      "doubleSided": false
    },
    {
      "name": "color_16089887",
      "pbrMetallicRoughness": {
        "baseColorFactor": [
          0.9607843137254902,
          0.5137254901960784,
          0.12156862745098039,
          1
        ],
        "metallicFactor": 0,
        "roughnessFactor": 1
      },
      "emissiveFactor": [
        0,
        0,
        0
      ],
      "alphaMode": "OPAQUE",
      "doubleSided": false
    }
  ],
  "meshes": [
    {
      "name": "group_0_7720667",
      "primitives": [
        {
          "attributes": {
            "POSITION": 0
          },
          "indices": 1,
          "material": 0,
          "mode": 4
        }
      ]
    },
    {
      "name": "group_0_8768998",
      "primitives": [
        {
          "attributes": {
            "POSITION": 2
          },
          "indices": 3,
          "material": 1,
          "mode": 4
        }
      ]
    },
    {
      "name": "group_0_14541540",
      "primitives": [
        {
          "attributes": {
            "POSITION": 4
          },
          "indices": 5,
          "material": 2,
          "mode": 4
        }
      ]
    },
    {
      "name": "group_0_14789940",
      "primitives": [
        {
          "attributes": {
            "POSITION": 6
          },
          "indices": 7,
          "material": 3,
          "mode": 4
        }
      ]
    },
    {
      "name": "group_0_15277357",
      "primitives": [
        {
          "attributes": {
            "POSITION": 8
          },
          "indices": 9,
          "material": 4,
          "mode": 4
        }
      ]
    },
    {
      "name": "group_0_16089887",
      "primitives": [
        {
          "attributes": {
            "POSITION": 10
          },
          "indices": 11,
          "material": 5,
          "mode": 4
        }
      ]
    }
  ],
  "nodes": [
    {
      "name": "obj_0",
      "children": [
        1,
        2,
        3,
        4,
        5,
        6
      ]
    },
    {
      "name": "group_0_7720667",
      "mesh": 0
    },
    {
      "name": "group_0_8768998",
      "mesh": 1
    },
    {
      "name": "group_0_14541540",
      "mesh": 2
    },
    {
      "name": "group_0_14789940",
      "mesh": 3
    },
    {
      "name": "group_0_15277357",
      "mesh": 4
    },
    {
      "name": "group_0_16089887",
      "mesh": 5
    }
  ],
  "scene": 0,
  "scenes": [
    {
      "nodes": [
        0
      ]
    }
  ]
}
