{
  "accessors": [
    {
      "name": "group_0_2829873_0_positions",
      "componentType": 5126,
      "count": 190,
      "min": [
        -18.909000396728516,
        -10,
        43
      ],
      "max": [
        27.409000396728516,
        9,
        111
      ],
      "type": "VEC3",
      "bufferView": 0,
      "byteOffset": 0
    },
    {
      "name": "group_0_2829873_0_indices",
      "componentType": 5123,
      "count": 585,
      "min": [
        0
      ],
      "max": [
        189
      ],
      "type": "SCALAR",
      "bufferView": 1,
      "byteOffset": 0
    },
    {
      "name": "group_0_4634441_0_positions",
      "componentType": 5126,
      "count": 675,
      "min": [
        6,
        -11.715999603271484,
        99.74600219726562
      ],
      "max": [
        9,
        -10,
        102.74600219726562
      ],
      "type": "VEC3",
      "bufferView": 0,
      "byteOffset": 2280
    },
    {
      "name": "group_0_4634441_0_indices",
      "componentType": 5123,
      "count": 3858,
      "min": [
        0
      ],
      "max": [
        674
      ],
      "type": "SCALAR",
      "bufferView": 1,
      "byteOffset": 1172
    },
    {
      "name": "group_0_8768998_0_positions",
      "componentType": 5126,
      "count": 78,
      "min": [
        -12,
        -14,
        2
      ],
      "max": [
        22,
        18,
        130.29299926757812
      ],
      "type": "VEC3",
      "bufferView": 0,
      "byteOffset": 10380
    },
    {
      "name": "group_0_8768998_0_indices",
      "componentType": 5123,
      "count": 420,
      "min": [
        0
      ],
      "max": [
        77
      ],
      "type": "SCALAR",
      "bufferView": 1,
      "byteOffset": 8888
    },
    {
      "name": "group_0_10988977_0_positions",
      "componentType": 5126,
      "count": 176,
      "min": [
        -19.5,
        -6,
        43
      ],
      "max": [
        28,
        8,
        110.80000305175781
      ],
      "type": "VEC3",
      "bufferView": 0,
      "byteOffset": 11316
    },
    {
      "name": "group_0_10988977_0_indices",
      "componentType": 5123,
      "count": 792,
      "min": [
        0
      ],
      "max": [
        175
      ],
      "type": "SCALAR",
      "bufferView": 1,
      "byteOffset": 9728
    },
    {
      "name": "group_0_15277357_0_positions",
      "componentType": 5126,
      "count": 17,
      "min": [
        -2,
        -12,
        91.08499908447266
      ],
      "max": [
        12,
        17,
        102.7699966430664
      ],
      "type": "VEC3",
      "bufferView": 0,
      "byteOffset": 13428
    },
    {
      "name": "group_0_15277357_0_indices",
      "componentType": 5123,
      "count": 63,
      "min": [
        0
      ],
      "max": [
        16
      ],
      "type": "SCALAR",
      "bufferView": 1,
      "byteOffset": 11312
    },
    {
      "name": "group_0_16448250_0_positions",
      "componentType": 5126,
      "count": 66,
      "min": [
        -20,
        -8.545000076293945,
        67
      ],
      "max": [
        28,
        12,
        130.63600158691406
      ],
      "type": "VEC3",
      "bufferView": 0,
      "byteOffset": 13632
    },
    {
      "name": "group_0_16448250_0_indices",
      "componentType": 5123,
      "count": 300,
      "min": [
        0
      ],
      "max": [
        65
      ],
      "type": "SCALAR",
      "bufferView": 1,
      "byteOffset": 11440
    }
  ],
  "asset": {
    "generator": "obj2gltf",
    "version": "2.0"
  },
  "buffers": [
    {
      "name": "tinker",
      "byteLength": 26464,
      "uri": "data:application/octet-stream;base64,"
    }
  ],
  "bufferViews": [
    {
      "name": "bufferView_0",
      "buffer": 0,
      "byteLength": 14424,
      "byteOffset": 0,
      "byteStride": 12,
      "target": 34962
    },
    {
      "name": "bufferView_1",
      "buffer": 0,
      "byteLength": 12040,
      "byteOffset": 14424,
      "target": 34963
    }
  ],
  "materials": [
    {
      "name": "color_2829873",
      "pbrMetallicRoughness": {
        "baseColorFactor": [
          0.16862745098039217,
          0.1803921568627451,
          0.19215686274509805,
          1
        ],
        "metallicFactor": 0,
        "roughnessFactor": 1
      },
      "emissiveFactor": [
        0,
        0,
        0
      ],
      "alphaMode": "OPAQUE",
      "doubleSided": false
    },
    {
      "name": "color_4634441",
      "pbrMetallicRoughness": {
        "baseColorFactor": [
          0.27450980392156865,
          0.7176470588235294,
          0.28627450980392155,
          1
        ],
        "metallicFactor": 0,
        "roughnessFactor": 1
      },
      "emissiveFactor": [
        0,
        0,
        0
      ],
      "alphaMode": "OPAQUE",
      "doubleSided": false
    },
    {
      "name": "color_8768998",
      "pbrMetallicRoughness": {
        "baseColorFactor": [
          0.5215686274509804,
          0.803921568627451,
          0.9019607843137255,
          1
        ],
        "metallicFactor": 0,
        "roughnessFactor": 1
      },
      "emissiveFactor": [
        0,
        0,
        0
      ],
      "alphaMode": "OPAQUE",
      "doubleSided": false
    },
    {
      "name": "color_10988977",
      "pbrMetallicRoughness": {
        "baseColorFactor": [
          0.6549019607843137,
          0.6784313725490196,
          0.6941176470588235,
          1
        ],
        "metallicFactor": 0,
        "roughnessFactor": 1
      },
      "emissiveFactor": [
        0,
        0,
        0
      ],
      "alphaMode": "OPAQUE",
      "doubleSided": false
    },
    {
      "name": "color_15277357",
      "pbrMetallicRoughness": {
        "baseColorFactor": [
          0.9137254901960784,
          0.11372549019607843,
          0.17647058823529413,
          1
        ],
        "metallicFactor": 0,
        "roughnessFactor": 1
      },
      "emissiveFactor": [
        0,
        0,
        0
      ],
      "alphaMode": "OPAQUE",
      "doubleSided": false
    },
    {
      "name": "color_16448250",
      "pbrMetallicRoughness": {
        "baseColorFactor": [
          0.9803921568627451,
          0.9803921568627451,
          0.9803921568627451,
          1
        ],
        "metallicFactor": 0,
        "roughnessFactor": 1
      },
      "emissiveFactor": [
        0,
        0,
        0
      ],
      "alphaMode": "OPAQUE",
      "doubleSided": false
    }
  ],
  "meshes": [
    {
      "name": "group_0_2829873",
      "primitives": [
        {
          "attributes": {
            "POSITION": 0
          },
          "indices": 1,
          "material": 0,
          "mode": 4
        }
      ]
    },
    {
      "name": "group_0_4634441",
      "primitives": [
        {
          "attributes": {
            "POSITION": 2
          },
          "indices": 3,
          "material": 1,
          "mode": 4
        }
      ]
    },
    {
      "name": "group_0_8768998",
      "primitives": [
        {
          "attributes": {
            "POSITION": 4
          },
          "indices": 5,
          "material": 2,
          "mode": 4
        }
      ]
    },
    {
      "name": "group_0_10988977",
      "primitives": [
        {
          "attributes": {
            "POSITION": 6
          },
          "indices": 7,
          "material": 3,
          "mode": 4
        }
      ]
    },
    {
      "name": "group_0_15277357",
      "primitives": [
        {
          "attributes": {
            "POSITION": 8
          },
          "indices": 9,
          "material": 4,
          "mode": 4
        }
      ]
    },
    {
      "name": "group_0_16448250",
      "primitives": [
        {
          "attributes": {
            "POSITION": 10
          },
          "indices": 11,
          "material": 5,
          "mode": 4
        }
      ]
    }
  ],
  "nodes": [
    {
      "name": "obj_0",
      "children": [
        1,
        2,
        3,
        4,
        5,
        6
      ]
    },
    {
      "name": "group_0_2829873",
      "mesh": 0
    },
    {
      "name": "group_0_4634441",
      "mesh": 1
    },
    {
      "name": "group_0_8768998",
      "mesh": 2
    },
    {
      "name": "group_0_10988977",
      "mesh": 3
    },
    {
      "name": "group_0_15277357",
      "mesh": 4
    },
    {
      "name": "group_0_16448250",
      "mesh": 5
    }
  ],
  "scene": 0,
  "scenes": [
    {
      "nodes": [
        0
      ]
    }
  ]
}
