{
  "accessors": [
    {
      "name": "group_0_40919_0_positions",
      "componentType": 5126,
      "count": 88,
      "min": [
        0.17399999499320984,
        0.46299999952316284,
        0
      ],
      "max": [
        12,
        14.00100040435791,
        4.665999889373779
      ],
      "type": "VEC3",
      "bufferView": 0,
      "byteOffset": 0
    },
    {
      "name": "group_0_40919_0_indices",
      "componentType": 5123,
      "count": 492,
      "min": [
        0
      ],
      "max": [
        87
      ],
      "type": "SCALAR",
      "bufferView": 1,
      "byteOffset": 0
    },
    {
      "name": "group_0_7720667_0_positions",
      "componentType": 5126,
      "count": 3128,
      "min": [
        -16.875999450683594,
        -4.433000087738037,
        -1
      ],
      "max": [
        1.2610000371932983,
        20,
        8.99899959564209
      ],
      "type": "VEC3",
      "bufferView": 0,
      "byteOffset": 1056
    },
    {
      "name": "group_0_7720667_0_indices",
      "componentType": 5123,
      "count": 16713,
      "min": [
        0
      ],
      "max": [
        3127
      ],
      "type": "SCALAR",
      "bufferView": 1,
      "byteOffset": 984
    },
    {
      "name": "group_0_8273816_0_positions",
      "componentType": 5126,
      "count": 724,
      "min": [
        -46.52799987792969,
        -3.328000068664551,
        0
      ],
      "max": [
        -4.802000045776367,
        13.807000160217285,
        9.333000183105469
      ],
      "type": "VEC3",
      "bufferView": 0,
      "byteOffset": 38592
    },
    {
      "name": "group_0_8273816_0_indices",
      "componentType": 5123,
      "count": 2298,
      "min": [
        0
      ],
      "max": [
        723
      ],
      "type": "SCALAR",
      "bufferView": 1,
      "byteOffset": 34412
    },
    {
      "name": "group_0_14093196_0_positions",
      "componentType": 5126,
      "count": 54,
      "min": [
        -36.44060134887695,
        -6.999000072479248,
        0
      ],
      "max": [
        -25.224000930786133,
        6.769000053405762,
        4.665999889373779
      ],
      "type": "VEC3",
      "bufferView": 0,
      "byteOffset": 47280
    },
    {
      "name": "group_0_14093196_0_indices",
      "componentType": 5123,
      "count": 288,
      "min": [
        0
      ],
      "max": [
        53
      ],
      "type": "SCALAR",
      "bufferView": 1,
      "byteOffset": 39008
    },
    {
      "name": "group_0_16089887_0_positions",
      "componentType": 5126,
      "count": 37,
      "min": [
        -26.503999710083008,
        -0.8809999823570251,
        0
      ],
      "max": [
        -15.006999969482422,
        12.656999588012695,
        7
      ],
      "type": "VEC3",
      "bufferView": 0,
      "byteOffset": 47928
    },
    {
      "name": "group_0_16089887_0_indices",
      "componentType": 5123,
      "count": 165,
      "min": [
        0
      ],
      "max": [
        36
      ],
      "type": "SCALAR",
      "bufferView": 1,
      "byteOffset": 39584
    }
  ],
  "asset": {
    "generator": "obj2gltf",
    "version": "2.0"
  },
  "buffers": [
    {
      "name": "tinker",
      "byteLength": 88288,
      "uri": "data:application/octet-stream;base64,"
    }
  ],
  "bufferViews": [
    {
      "name": "bufferView_0",
      "buffer": 0,
      "byteLength": 48372,
      "byteOffset": 0,
      "byteStride": 12,
      "target": 34962
    },
    {
      "name": "bufferView_1",
      "buffer": 0,
      "byteLength": 39916,
      "byteOffset": 48372,
      "target": 34963
    }
  ],
  "materials": [
    {
      "name": "color_40919",
      "pbrMetallicRoughness": {
        "baseColorFactor": [
          0,
          0.6235294117647059,
          0.8431372549019608,
          1
        ],
        "metallicFactor": 0,
        "roughnessFactor": 1
      },
      "emissiveFactor": [
        0,
        0,
        0
      ],
      "alphaMode": "OPAQUE",
      "doubleSided": false
    },
    {
      "name": "color_7720667",
      "pbrMetallicRoughness": {
        "baseColorFactor": [
          0.4588235294117647,
          0.807843137254902,
          0.8588235294117647,
          1
        ],
        "metallicFactor": 0,
        "roughnessFactor": 1
      },
      "emissiveFactor": [
        0,
        0,
        0
      ],
      "alphaMode": "OPAQUE",
      "doubleSided": false
    },
    {
      "name": "color_8273816",
      "pbrMetallicRoughness": {
        "baseColorFactor": [
          0.49411764705882355,
          0.24705882352941178,
          0.596078431372549,
          1
        ],
        "metallicFactor": 0,
        "roughnessFactor": 1
      },
      "emissiveFactor": [
        0,
        0,
        0
      ],
      "alphaMode": "OPAQUE",
      "doubleSided": false
    },
    {
      "name": "color_14093196",
      "pbrMetallicRoughness": {
        "baseColorFactor": [
          0.8431372549019608,
          0.043137254901960784,
          0.5490196078431373,
          1
        ],
        "metallicFactor": 0,
        "roughnessFactor": 1
      },
      "emissiveFactor": [
        0,
        0,
        0
      ],
      "alphaMode": "OPAQUE",
      "doubleSided": false
    },
    {
      "name": "color_16089887",
      "pbrMetallicRoughness": {
        "baseColorFactor": [
          0.9607843137254902,
          0.5137254901960784,
          0.12156862745098039,
          1
        ],
        "metallicFactor": 0,
        "roughnessFactor": 1
      },
      "emissiveFactor": [
        0,
        0,
        0
      ],
      "alphaMode": "OPAQUE",
      "doubleSided": false
    }
  ],
  "meshes": [
    {
      "name": "group_0_40919",
      "primitives": [
        {
          "attributes": {
            "POSITION": 0
          },
          "indices": 1,
          "material": 0,
          "mode": 4
        }
      ]
    },
    {
      "name": "group_0_7720667",
      "primitives": [
        {
          "attributes": {
            "POSITION": 2
          },
          "indices": 3,
          "material": 1,
          "mode": 4
        }
      ]
    },
    {
      "name": "group_0_8273816",
      "primitives": [
        {
          "attributes": {
            "POSITION": 4
          },
          "indices": 5,
          "material": 2,
          "mode": 4
        }
      ]
    },
    {
      "name": "group_0_14093196",
      "primitives": [
        {
          "attributes": {
            "POSITION": 6
          },
          "indices": 7,
          "material": 3,
          "mode": 4
        }
      ]
    },
    {
      "name": "group_0_16089887",
      "primitives": [
        {
          "attributes": {
            "POSITION": 8
          },
          "indices": 9,
          "material": 4,
          "mode": 4
        }
      ]
    }
  ],
  "nodes": [
    {
      "name": "obj_0",
      "children": [
        1,
        2,
        3,
        4,
        5
      ]
    },
    {
      "name": "group_0_40919",
      "mesh": 0
    },
    {
      "name": "group_0_7720667",
      "mesh": 1
    },
    {
      "name": "group_0_8273816",
      "mesh": 2
    },
    {
      "name": "group_0_14093196",
      "mesh": 3
    },
    {
      "name": "group_0_16089887",
      "mesh": 4
    }
  ],
  "scene": 0,
  "scenes": [
    {
      "nodes": [
        0
      ]
    }
  ]
}
