{
  "accessors": [
    {
      "name": "group_0_7720667_0_positions",
      "componentType": 5126,
      "count": 120,
      "min": [
        -7.851200103759766,
        -10,
        -40
      ],
      "max": [
        80,
        10,
        31.27560043334961
      ],
      "type": "VEC3",
      "bufferView": 0,
      "byteOffset": 0
    },
    {
      "name": "group_0_7720667_0_indices",
      "componentType": 5123,
      "count": 300,
      "min": [
        0
      ],
      "max": [
        119
      ],
      "type": "SCALAR",
      "bufferView": 1,
      "byteOffset": 0
    },
    {
      "name": "group_0_14093196_0_positions",
      "componentType": 5126,
      "count": 1147,
      "min": [
        -169.53819274902344,
        -169.53819274902344,
        -5
      ],
      "max": [
        168.74490356445312,
        169.53819274902344,
        2.1888999938964844
      ],
      "type": "VEC3",
      "bufferView": 0,
      "byteOffset": 1440
    },
    {
      "name": "group_0_14093196_0_indices",
      "componentType": 5123,
      "count": 4146,
      "min": [
        0
      ],
      "max": [
        1146
      ],
      "type": "SCALAR",
      "bufferView": 1,
      "byteOffset": 600
    },
    {
      "name": "group_0_14541540_0_positions",
      "componentType": 5126,
      "count": 3171,
      "min": [
        -200,
        -200,
        -200
      ],
      "max": [
        200,
        200,
        200
      ],
      "type": "VEC3",
      "bufferView": 0,
      "byteOffset": 15204
    },
    {
      "name": "group_0_14541540_0_indices",
      "componentType": 5123,
      "count": 15147,
      "min": [
        0
      ],
      "max": [
        3170
      ],
      "type": "SCALAR",
      "bufferView": 1,
      "byteOffset": 8892
    },
    {
      "name": "group_0_15277357_0_positions",
      "componentType": 5126,
      "count": 1362,
      "min": [
        -90,
        -90,
        -90
      ],
      "max": [
        90,
        90,
        90
      ],
      "type": "VEC3",
      "bufferView": 0,
      "byteOffset": 53256
    },
    {
      "name": "group_0_15277357_0_indices",
      "componentType": 5123,
      "count": 4200,
      "min": [
        0
      ],
      "max": [
        1361
      ],
      "type": "SCALAR",
      "bufferView": 1,
      "byteOffset": 39188
    },
    {
      "name": "group_0_16768282_0_positions",
      "componentType": 5126,
      "count": 1036,
      "min": [
        -180.90199279785156,
        -190.21099853515625,
        -50
      ],
      "max": [
        180.90199279785156,
        190.21099853515625,
        50
      ],
      "type": "VEC3",
      "bufferView": 0,
      "byteOffset": 69600
    },
    {
      "name": "group_0_16768282_0_indices",
      "componentType": 5123,
      "count": 3765,
      "min": [
        0
      ],
      "max": [
        1035
      ],
      "type": "SCALAR",
      "bufferView": 1,
      "byteOffset": 47588
    }
  ],
  "asset": {
    "generator": "obj2gltf",
    "version": "2.0"
  },
  "buffers": [
    {
      "name": "tinker",
      "byteLength": 137152,
      "uri": "data:application/octet-stream;base64,"
    }
  ],
  "bufferViews": [
    {
      "name": "bufferView_0",
      "buffer": 0,
      "byteLength": 82032,
      "byteOffset": 0,
      "byteStride": 12,
      "target": 34962
    },
    {
      "name": "bufferView_1",
      "buffer": 0,
      "byteLength": 55120,
      "byteOffset": 82032,
      "target": 34963
    }
  ],
  "materials": [
    {
      "name": "color_7720667",
      "pbrMetallicRoughness": {
        "baseColorFactor": [
          0.4588235294117647,
          0.807843137254902,
          0.8588235294117647,
          1
        ],
        "metallicFactor": 0,
        "roughnessFactor": 1
      },
      "emissiveFactor": [
        0,
        0,
        0
      ],
      "alphaMode": "OPAQUE",
      "doubleSided": false
    },
    {
      "name": "color_14093196",
      "pbrMetallicRoughness": {
        "baseColorFactor": [
          0.8431372549019608,
          0.043137254901960784,
          0.5490196078431373,
          1
        ],
        "metallicFactor": 0,
        "roughnessFactor": 1
      },
      "emissiveFactor": [
        0,
        0,
        0
      ],
      "alphaMode": "OPAQUE",
      "doubleSided": false
    },
    {
      "name": "color_14541540",
      "pbrMetallicRoughness": {
        "baseColorFactor": [
          0.8666666666666667,
          0.8862745098039215,
          0.8941176470588236,
          1
        ],
        "metallicFactor": 0,
        "roughnessFactor": 1
      },
      "emissiveFactor": [
        0,
        0,
        0
      ],
      "alphaMode": "OPAQUE",
      "doubleSided": false
    },
    {
      "name": "color_15277357",
      "pbrMetallicRoughness": {
        "baseColorFactor": [
          0.9137254901960784,
          0.11372549019607843,
          0.17647058823529413,
          1
        ],
        "metallicFactor": 0,
        "roughnessFactor": 1
      },
      "emissiveFactor": [
        0,
        0,
        0
      ],
      "alphaMode": "OPAQUE",
      "doubleSided": false
    },
    {
      "name": "color_16768282",
      "pbrMetallicRoughness": {
        "baseColorFactor": [
          1,
          0.8666666666666667,
          0.10196078431372549,
          1
        ],
        "metallicFactor": 0,
        "roughnessFactor": 1
      },
      "emissiveFactor": [
        0,
        0,
        0
      ],
      "alphaMode": "OPAQUE",
      "doubleSided": false
    }
  ],
  "meshes": [
    {
      "name": "group_0_7720667",
      "primitives": [
        {
          "attributes": {
            "POSITION": 0
          },
          "indices": 1,
          "material": 0,
          "mode": 4
        }
      ]
    },
    {
      "name": "group_0_14093196",
      "primitives": [
        {
          "attributes": {
            "POSITION": 2
          },
          "indices": 3,
          "material": 1,
          "mode": 4
        }
      ]
    },
    {
      "name": "group_0_14541540",
      "primitives": [
        {
          "attributes": {
            "POSITION": 4
          },
          "indices": 5,
          "material": 2,
          "mode": 4
        }
      ]
    },
    {
      "name": "group_0_15277357",
      "primitives": [
        {
          "attributes": {
            "POSITION": 6
          },
          "indices": 7,
          "material": 3,
          "mode": 4
        }
      ]
    },
    {
      "name": "group_0_16768282",
      "primitives": [
        {
          "attributes": {
            "POSITION": 8
          },
          "indices": 9,
          "material": 4,
          "mode": 4
        }
      ]
    }
  ],
  "nodes": [
    {
      "name": "obj_0",
      "children": [
        1,
        2,
        3,
        4,
        5
      ]
    },
    {
      "name": "group_0_7720667",
      "mesh": 0
    },
    {
      "name": "group_0_14093196",
      "mesh": 1
    },
    {
      "name": "group_0_14541540",
      "mesh": 2
    },
    {
      "name": "group_0_15277357",
      "mesh": 3
    },
    {
      "name": "group_0_16768282",
      "mesh": 4
    }
  ],
  "scene": 0,
  "scenes": [
    {
      "nodes": [
        0
      ]
    }
  ]
}
