{
  "accessors": [
    {
      "name": "group_0_40919_0_positions",
      "componentType": 5126,
      "count": 1222,
      "min": [
        -41,
        -59,
        0
      ],
      "max": [
        52,
        15,
        94
      ],
      "type": "VEC3",
      "bufferView": 0,
      "byteOffset": 0
    },
    {
      "name": "group_0_40919_0_indices",
      "componentType": 5123,
      "count": 5475,
      "min": [
        0
      ],
      "max": [
        1221
      ],
      "type": "SCALAR",
      "bufferView": 1,
      "byteOffset": 0
    },
    {
      "name": "group_0_2829873_0_positions",
      "componentType": 5126,
      "count": 996,
      "min": [
        -13.583600044250488,
        -57,
        60.41659927368164
      ],
      "max": [
        31.58340072631836,
        -51.72650146484375,
        71.4092025756836
      ],
      "type": "VEC3",
      "bufferView": 0,
      "byteOffset": 14664
    },
    {
      "name": "group_0_2829873_0_indices",
      "componentType": 5123,
      "count": 4605,
      "min": [
        0
      ],
      "max": [
        995
      ],
      "type": "SCALAR",
      "bufferView": 1,
      "byteOffset": 10952
    },
    {
      "name": "group_0_4634441_0_positions",
      "componentType": 5126,
      "count": 19,
      "min": [
        5.002600193023682,
        -64,
        50.260501861572266
      ],
      "max": [
        11.237199783325195,
        -57.442901611328125,
        59.020999908447266
      ],
      "type": "VEC3",
      "bufferView": 0,
      "byteOffset": 26616
    },
    {
      "name": "group_0_4634441_0_indices",
      "componentType": 5123,
      "count": 57,
      "min": [
        0
      ],
      "max": [
        18
      ],
      "type": "SCALAR",
      "bufferView": 1,
      "byteOffset": 20164
    },
    {
      "name": "group_0_8768998_0_positions",
      "componentType": 5126,
      "count": 337,
      "min": [
        -9,
        -59,
        20
      ],
      "max": [
        24,
        -50.7942008972168,
        48.03200149536133
      ],
      "type": "VEC3",
      "bufferView": 0,
      "byteOffset": 26844
    },
    {
      "name": "group_0_8768998_0_indices",
      "componentType": 5123,
      "count": 1395,
      "min": [
        0
      ],
      "max": [
        336
      ],
      "type": "SCALAR",
      "bufferView": 1,
      "byteOffset": 20280
    },
    {
      "name": "group_0_16448250_0_positions",
      "componentType": 5126,
      "count": 1018,
      "min": [
        -19.475200653076172,
        -56.05009841918945,
        58.29199981689453
      ],
      "max": [
        38,
        -44.5,
        74.9520034790039
      ],
      "type": "VEC3",
      "bufferView": 0,
      "byteOffset": 30888
    },
    {
      "name": "group_0_16448250_0_indices",
      "componentType": 5123,
      "count": 4203,
      "min": [
        0
      ],
      "max": [
        1017
      ],
      "type": "SCALAR",
      "bufferView": 1,
      "byteOffset": 23072
    },
    {
      "name": "group_0_16768282_0_positions",
      "componentType": 5126,
      "count": 48,
      "min": [
        -26.687000274658203,
        -35.231998443603516,
        79.75199890136719
      ],
      "max": [
        43.117000579833984,
        -13.019000053405762,
        106.19100189208984
      ],
      "type": "VEC3",
      "bufferView": 0,
      "byteOffset": 43104
    },
    {
      "name": "group_0_16768282_0_indices",
      "componentType": 5123,
      "count": 165,
      "min": [
        0
      ],
      "max": [
        47
      ],
      "type": "SCALAR",
      "bufferView": 1,
      "byteOffset": 31480
    }
  ],
  "asset": {
    "generator": "obj2gltf",
    "version": "2.0"
  },
  "buffers": [
    {
      "name": "tinker",
      "byteLength": 75492,
      "uri": "data:application/octet-stream;base64,"
    }
  ],
  "bufferViews": [
    {
      "name": "bufferView_0",
      "buffer": 0,
      "byteLength": 43680,
      "byteOffset": 0,
      "byteStride": 12,
      "target": 34962
    },
    {
      "name": "bufferView_1",
      "buffer": 0,
      "byteLength": 31812,
      "byteOffset": 43680,
      "target": 34963
    }
  ],
  "materials": [
    {
      "name": "color_40919",
      "pbrMetallicRoughness": {
        "baseColorFactor": [
          0,
          0.6235294117647059,
          0.8431372549019608,
          1
        ],
        "metallicFactor": 0,
        "roughnessFactor": 1
      },
      "emissiveFactor": [
        0,
        0,
        0
      ],
      "alphaMode": "OPAQUE",
      "doubleSided": false
    },
    {
      "name": "color_2829873",
      "pbrMetallicRoughness": {
        "baseColorFactor": [
          0.16862745098039217,
          0.1803921568627451,
          0.19215686274509805,
          1
        ],
        "metallicFactor": 0,
        "roughnessFactor": 1
      },
      "emissiveFactor": [
        0,
        0,
        0
      ],
      "alphaMode": "OPAQUE",
      "doubleSided": false
    },
    {
      "name": "color_4634441",
      "pbrMetallicRoughness": {
        "baseColorFactor": [
          0.27450980392156865,
          0.7176470588235294,
          0.28627450980392155,
          1
        ],
        "metallicFactor": 0,
        "roughnessFactor": 1
      },
      "emissiveFactor": [
        0,
        0,
        0
      ],
      "alphaMode": "OPAQUE",
      "doubleSided": false
    },
    {
      "name": "color_8768998",
      "pbrMetallicRoughness": {
        "baseColorFactor": [
          0.5215686274509804,
          0.803921568627451,
          0.9019607843137255,
          1
        ],
        "metallicFactor": 0,
        "roughnessFactor": 1
      },
      "emissiveFactor": [
        0,
        0,
        0
      ],
      "alphaMode": "OPAQUE",
      "doubleSided": false
    },
    {
      "name": "color_16448250",
      "pbrMetallicRoughness": {
        "baseColorFactor": [
          0.9803921568627451,
          0.9803921568627451,
          0.9803921568627451,
          1
        ],
        "metallicFactor": 0,
        "roughnessFactor": 1
      },
      "emissiveFactor": [
        0,
        0,
        0
      ],
      "alphaMode": "OPAQUE",
      "doubleSided": false
    },
    {
      "name": "color_16768282",
      "pbrMetallicRoughness": {
        "baseColorFactor": [
          1,
          0.8666666666666667,
          0.10196078431372549,
          1
        ],
        "metallicFactor": 0,
        "roughnessFactor": 1
      },
      "emissiveFactor": [
        0,
        0,
        0
      ],
      "alphaMode": "OPAQUE",
      "doubleSided": false
    }
  ],
  "meshes": [
    {
      "name": "group_0_40919",
      "primitives": [
        {
          "attributes": {
            "POSITION": 0
          },
          "indices": 1,
          "material": 0,
          "mode": 4
        }
      ]
    },
    {
      "name": "group_0_2829873",
      "primitives": [
        {
          "attributes": {
            "POSITION": 2
          },
          "indices": 3,
          "material": 1,
          "mode": 4
        }
      ]
    },
    {
      "name": "group_0_4634441",
      "primitives": [
        {
          "attributes": {
            "POSITION": 4
          },
          "indices": 5,
          "material": 2,
          "mode": 4
        }
      ]
    },
    {
      "name": "group_0_8768998",
      "primitives": [
        {
          "attributes": {
            "POSITION": 6
          },
          "indices": 7,
          "material": 3,
          "mode": 4
        }
      ]
    },
    {
      "name": "group_0_16448250",
      "primitives": [
        {
          "attributes": {
            "POSITION": 8
          },
          "indices": 9,
          "material": 4,
          "mode": 4
        }
      ]
    },
    {
      "name": "group_0_16768282",
      "primitives": [
        {
          "attributes": {
            "POSITION": 10
          },
          "indices": 11,
          "material": 5,
          "mode": 4
        }
      ]
    }
  ],
  "nodes": [
    {
      "name": "obj_0",
      "children": [
        1,
        2,
        3,
        4,
        5,
        6
      ]
    },
    {
      "name": "group_0_40919",
      "mesh": 0
    },
    {
      "name": "group_0_2829873",
      "mesh": 1
    },
    {
      "name": "group_0_4634441",
      "mesh": 2
    },
    {
      "name": "group_0_8768998",
      "mesh": 3
    },
    {
      "name": "group_0_16448250",
      "mesh": 4
    },
    {
      "name": "group_0_16768282",
      "mesh": 5
    }
  ],
  "scene": 0,
  "scenes": [
    {
      "nodes": [
        0
      ]
    }
  ]
}
