{
  "accessors": [
    {
      "name": "group_0_40919_0_positions",
      "componentType": 5126,
      "count": 525,
      "min": [
        -38,
        -19,
        0
      ],
      "max": [
        41,
        67,
        31
      ],
      "type": "VEC3",
      "bufferView": 0,
      "byteOffset": 0
    },
    {
      "name": "group_0_40919_0_indices",
      "componentType": 5123,
      "count": 2628,
      "min": [
        0
      ],
      "max": [
        524
      ],
      "type": "SCALAR",
      "bufferView": 1,
      "byteOffset": 0
    },
    {
      "name": "group_0_15277357_0_positions",
      "componentType": 5126,
      "count": 240,
      "min": [
        -105,
        -85.5,
        0
      ],
      "max": [
        112,
        97,
        20.738000869750977
      ],
      "type": "VEC3",
      "bufferView": 0,
      "byteOffset": 6300
    },
    {
      "name": "group_0_15277357_0_indices",
      "componentType": 5123,
      "count": 858,
      "min": [
        0
      ],
      "max": [
        239
      ],
      "type": "SCALAR",
      "bufferView": 1,
      "byteOffset": 5256
    }
  ],
  "asset": {
    "generator": "obj2gltf",
    "version": "2.0"
  },
  "buffers": [
    {
      "name": "tinker",
      "byteLength": 16152,
      "uri": "data:application/octet-stream;base64,"
    }
  ],
  "bufferViews": [
    {
      "name": "bufferView_0",
      "buffer": 0,
      "byteLength": 9180,
      "byteOffset": 0,
      "byteStride": 12,
      "target": 34962
    },
    {
      "name": "bufferView_1",
      "buffer": 0,
      "byteLength": 6972,
      "byteOffset": 9180,
      "target": 34963
    }
  ],
  "materials": [
    {
      "name": "color_40919",
      "pbrMetallicRoughness": {
        "baseColorFactor": [
          0,
          0.6235294117647059,
          0.8431372549019608,
          1
        ],
        "metallicFactor": 0,
        "roughnessFactor": 1
      },
      "emissiveFactor": [
        0,
        0,
        0
      ],
      "alphaMode": "OPAQUE",
      "doubleSided": false
    },
    {
      "name": "color_15277357",
      "pbrMetallicRoughness": {
        "baseColorFactor": [
          0.9137254901960784,
          0.11372549019607843,
          0.17647058823529413,
          1
        ],
        "metallicFactor": 0,
        "roughnessFactor": 1
      },
      "emissiveFactor": [
        0,
        0,
        0
      ],
      "alphaMode": "OPAQUE",
      "doubleSided": false
    }
  ],
  "meshes": [
    {
      "name": "group_0_40919",
      "primitives": [
        {
          "attributes": {
            "POSITION": 0
          },
          "indices": 1,
          "material": 0,
          "mode": 4
        }
      ]
    },
    {
      "name": "group_0_15277357",
      "primitives": [
        {
          "attributes": {
            "POSITION": 2
          },
          "indices": 3,
          "material": 1,
          "mode": 4
        }
      ]
    }
  ],
  "nodes": [
    {
      "name": "obj_0",
      "children": [
        1,
        2
      ]
    },
    {
      "name": "group_0_40919",
      "mesh": 0
    },
    {
      "name": "group_0_15277357",
      "mesh": 1
    }
  ],
  "scene": 0,
  "scenes": [
    {
      "nodes": [
        0
      ]
    }
  ]
}
